<mxfile host="app.diagrams.net" modified="2023-05-31T08:19:47.851Z" agent="Mozilla/5.0 (Windows NT 10.0; Win64; x64) AppleWebKit/537.36 (KHTML, like Gecko) Chrome/113.0.0.0 Safari/537.36" etag="Zqhuyky1HHJ1YMFm1BVV" version="21.3.5" type="github">
  <diagram name="第 1 页" id="dBphtYbZ2WW3VXYPLiIC">
    <mxGraphModel dx="2074" dy="1156" grid="1" gridSize="10" guides="1" tooltips="1" connect="1" arrows="1" fold="1" page="1" pageScale="1" pageWidth="1654" pageHeight="2336" math="0" shadow="0">
      <root>
        <mxCell id="0" />
        <mxCell id="1" parent="0" />
        <mxCell id="8K-ZyTyxPVJUmLBrVijM-1" value="" style="rounded=0;whiteSpace=wrap;html=1;fillColor=#E6E6E6;" vertex="1" parent="1">
          <mxGeometry x="210" y="180" width="1230" height="880" as="geometry" />
        </mxCell>
        <mxCell id="8K-ZyTyxPVJUmLBrVijM-2" value="" style="rounded=0;whiteSpace=wrap;html=1;fillColor=#66B2FF;" vertex="1" parent="1">
          <mxGeometry x="220" y="520" width="560" height="120" as="geometry" />
        </mxCell>
        <mxCell id="8K-ZyTyxPVJUmLBrVijM-3" value="" style="rounded=0;whiteSpace=wrap;html=1;fillColor=#66B2FF;" vertex="1" parent="1">
          <mxGeometry x="800" y="520" width="630" height="120" as="geometry" />
        </mxCell>
        <mxCell id="8K-ZyTyxPVJUmLBrVijM-4" style="rounded=0;orthogonalLoop=1;jettySize=auto;html=1;exitX=0.5;exitY=0;exitDx=0;exitDy=0;exitPerimeter=0;shape=link;fillColor=#b0e3e6;strokeColor=#0e8088;strokeWidth=2;" edge="1" parent="1" source="8K-ZyTyxPVJUmLBrVijM-8" target="8K-ZyTyxPVJUmLBrVijM-26">
          <mxGeometry relative="1" as="geometry" />
        </mxCell>
        <mxCell id="8K-ZyTyxPVJUmLBrVijM-5" style="rounded=0;orthogonalLoop=1;jettySize=auto;html=1;exitX=0.5;exitY=0;exitDx=0;exitDy=0;exitPerimeter=0;shape=link;fillColor=#b0e3e6;strokeColor=#0e8088;strokeWidth=2;" edge="1" parent="1" source="8K-ZyTyxPVJUmLBrVijM-8" target="8K-ZyTyxPVJUmLBrVijM-25">
          <mxGeometry relative="1" as="geometry" />
        </mxCell>
        <mxCell id="8K-ZyTyxPVJUmLBrVijM-6" style="rounded=0;orthogonalLoop=1;jettySize=auto;html=1;exitX=0.5;exitY=1;exitDx=0;exitDy=0;exitPerimeter=0;shape=link;fillColor=#ffcd28;gradientColor=#ffa500;strokeColor=#d79b00;strokeWidth=2;" edge="1" parent="1" source="8K-ZyTyxPVJUmLBrVijM-8" target="8K-ZyTyxPVJUmLBrVijM-22">
          <mxGeometry relative="1" as="geometry">
            <Array as="points">
              <mxPoint x="660" y="960" />
            </Array>
          </mxGeometry>
        </mxCell>
        <mxCell id="8K-ZyTyxPVJUmLBrVijM-7" style="edgeStyle=orthogonalEdgeStyle;rounded=0;orthogonalLoop=1;jettySize=auto;html=1;exitX=1;exitY=0.5;exitDx=0;exitDy=0;exitPerimeter=0;entryX=0;entryY=0.5;entryDx=0;entryDy=0;entryPerimeter=0;shape=link;fillColor=#ffcd28;gradientColor=#ffa500;strokeColor=#d79b00;strokeWidth=3;" edge="1" parent="1" source="8K-ZyTyxPVJUmLBrVijM-8" target="8K-ZyTyxPVJUmLBrVijM-12">
          <mxGeometry relative="1" as="geometry" />
        </mxCell>
        <mxCell id="8K-ZyTyxPVJUmLBrVijM-8" value="" style="shape=mxgraph.cisco.switches.atm_fast_gigabit_etherswitch;sketch=0;html=1;pointerEvents=1;dashed=0;fillColor=#036897;strokeColor=#ffffff;strokeWidth=2;verticalLabelPosition=bottom;verticalAlign=top;align=center;outlineConnect=0;" vertex="1" parent="1">
          <mxGeometry x="378" y="760" width="64" height="64" as="geometry" />
        </mxCell>
        <mxCell id="8K-ZyTyxPVJUmLBrVijM-9" style="rounded=0;orthogonalLoop=1;jettySize=auto;html=1;exitX=0.5;exitY=0;exitDx=0;exitDy=0;exitPerimeter=0;shape=link;fillColor=#b0e3e6;strokeColor=#0e8088;strokeWidth=2;" edge="1" parent="1" source="8K-ZyTyxPVJUmLBrVijM-12" target="8K-ZyTyxPVJUmLBrVijM-25">
          <mxGeometry relative="1" as="geometry" />
        </mxCell>
        <mxCell id="8K-ZyTyxPVJUmLBrVijM-10" style="rounded=0;orthogonalLoop=1;jettySize=auto;html=1;exitX=0.5;exitY=0;exitDx=0;exitDy=0;exitPerimeter=0;shape=link;fillColor=#b0e3e6;strokeColor=#0e8088;strokeWidth=2;" edge="1" parent="1" source="8K-ZyTyxPVJUmLBrVijM-12" target="8K-ZyTyxPVJUmLBrVijM-26">
          <mxGeometry relative="1" as="geometry" />
        </mxCell>
        <mxCell id="8K-ZyTyxPVJUmLBrVijM-11" style="rounded=0;orthogonalLoop=1;jettySize=auto;html=1;exitX=0.5;exitY=1;exitDx=0;exitDy=0;exitPerimeter=0;shape=link;entryX=0.5;entryY=0;entryDx=0;entryDy=0;entryPerimeter=0;fillColor=#ffcd28;gradientColor=#ffa500;strokeColor=#d79b00;strokeWidth=2;" edge="1" parent="1" source="8K-ZyTyxPVJUmLBrVijM-12" target="8K-ZyTyxPVJUmLBrVijM-24">
          <mxGeometry relative="1" as="geometry" />
        </mxCell>
        <mxCell id="8K-ZyTyxPVJUmLBrVijM-12" value="" style="shape=mxgraph.cisco.switches.atm_fast_gigabit_etherswitch;sketch=0;html=1;pointerEvents=1;dashed=0;fillColor=#036897;strokeColor=#ffffff;strokeWidth=2;verticalLabelPosition=bottom;verticalAlign=top;align=center;outlineConnect=0;" vertex="1" parent="1">
          <mxGeometry x="580" y="760" width="64" height="64" as="geometry" />
        </mxCell>
        <mxCell id="8K-ZyTyxPVJUmLBrVijM-13" style="rounded=0;orthogonalLoop=1;jettySize=auto;html=1;exitX=0.5;exitY=0;exitDx=0;exitDy=0;exitPerimeter=0;shape=link;fillColor=#b0e3e6;strokeColor=#0e8088;strokeWidth=2;" edge="1" parent="1" source="8K-ZyTyxPVJUmLBrVijM-15" target="8K-ZyTyxPVJUmLBrVijM-27">
          <mxGeometry relative="1" as="geometry">
            <mxPoint x="860" y="610" as="targetPoint" />
          </mxGeometry>
        </mxCell>
        <mxCell id="8K-ZyTyxPVJUmLBrVijM-14" style="edgeStyle=orthogonalEdgeStyle;rounded=0;orthogonalLoop=1;jettySize=auto;html=1;exitX=1;exitY=0.5;exitDx=0;exitDy=0;exitPerimeter=0;entryX=0;entryY=0.5;entryDx=0;entryDy=0;entryPerimeter=0;shape=link;fillColor=#ffcd28;gradientColor=#ffa500;strokeColor=#d79b00;strokeWidth=2;" edge="1" parent="1" source="8K-ZyTyxPVJUmLBrVijM-15" target="8K-ZyTyxPVJUmLBrVijM-19">
          <mxGeometry relative="1" as="geometry" />
        </mxCell>
        <mxCell id="8K-ZyTyxPVJUmLBrVijM-15" value="" style="shape=mxgraph.cisco.switches.atm_fast_gigabit_etherswitch;sketch=0;html=1;pointerEvents=1;dashed=0;fillColor=#036897;strokeColor=#ffffff;strokeWidth=2;verticalLabelPosition=bottom;verticalAlign=top;align=center;outlineConnect=0;" vertex="1" parent="1">
          <mxGeometry x="962" y="760" width="64" height="64" as="geometry" />
        </mxCell>
        <mxCell id="8K-ZyTyxPVJUmLBrVijM-16" style="rounded=0;orthogonalLoop=1;jettySize=auto;html=1;exitX=0.5;exitY=0;exitDx=0;exitDy=0;exitPerimeter=0;shape=link;fillColor=#b0e3e6;strokeColor=#0e8088;strokeWidth=2;" edge="1" parent="1" source="8K-ZyTyxPVJUmLBrVijM-15" target="8K-ZyTyxPVJUmLBrVijM-28">
          <mxGeometry relative="1" as="geometry" />
        </mxCell>
        <mxCell id="8K-ZyTyxPVJUmLBrVijM-17" style="rounded=0;orthogonalLoop=1;jettySize=auto;html=1;shape=link;fillColor=#b0e3e6;strokeColor=#0e8088;strokeWidth=2;" edge="1" parent="1" source="8K-ZyTyxPVJUmLBrVijM-19" target="8K-ZyTyxPVJUmLBrVijM-28">
          <mxGeometry relative="1" as="geometry" />
        </mxCell>
        <mxCell id="8K-ZyTyxPVJUmLBrVijM-18" style="rounded=0;orthogonalLoop=1;jettySize=auto;html=1;exitX=0.5;exitY=0;exitDx=0;exitDy=0;exitPerimeter=0;shape=link;fillColor=#b0e3e6;strokeColor=#0e8088;strokeWidth=2;" edge="1" parent="1" source="8K-ZyTyxPVJUmLBrVijM-19" target="8K-ZyTyxPVJUmLBrVijM-27">
          <mxGeometry relative="1" as="geometry" />
        </mxCell>
        <mxCell id="8K-ZyTyxPVJUmLBrVijM-19" value="" style="shape=mxgraph.cisco.switches.atm_fast_gigabit_etherswitch;sketch=0;html=1;pointerEvents=1;dashed=0;fillColor=#036897;strokeColor=#ffffff;strokeWidth=2;verticalLabelPosition=bottom;verticalAlign=top;align=center;outlineConnect=0;" vertex="1" parent="1">
          <mxGeometry x="1250" y="760" width="64" height="64" as="geometry" />
        </mxCell>
        <mxCell id="8K-ZyTyxPVJUmLBrVijM-20" style="rounded=0;orthogonalLoop=1;jettySize=auto;html=1;exitX=0.5;exitY=0;exitDx=0;exitDy=0;exitPerimeter=0;shape=link;fillColor=#ffcd28;gradientColor=#ffa500;strokeColor=#d79b00;strokeWidth=2;" edge="1" parent="1" source="8K-ZyTyxPVJUmLBrVijM-22" target="8K-ZyTyxPVJUmLBrVijM-15">
          <mxGeometry relative="1" as="geometry" />
        </mxCell>
        <mxCell id="8K-ZyTyxPVJUmLBrVijM-21" style="edgeStyle=orthogonalEdgeStyle;rounded=0;orthogonalLoop=1;jettySize=auto;html=1;exitX=1;exitY=0.5;exitDx=0;exitDy=0;exitPerimeter=0;entryX=0;entryY=0.5;entryDx=0;entryDy=0;entryPerimeter=0;shape=link;" edge="1" parent="1" source="8K-ZyTyxPVJUmLBrVijM-22" target="8K-ZyTyxPVJUmLBrVijM-24">
          <mxGeometry relative="1" as="geometry" />
        </mxCell>
        <mxCell id="8K-ZyTyxPVJUmLBrVijM-22" value="" style="shape=mxgraph.cisco.switches.mgx_8000_multiservice_switch;sketch=0;html=1;pointerEvents=1;dashed=0;fillColor=#036897;strokeColor=#ffffff;strokeWidth=2;verticalLabelPosition=bottom;verticalAlign=top;align=center;outlineConnect=0;" vertex="1" parent="1">
          <mxGeometry x="630" y="960" width="78" height="78" as="geometry" />
        </mxCell>
        <mxCell id="8K-ZyTyxPVJUmLBrVijM-23" style="rounded=0;orthogonalLoop=1;jettySize=auto;html=1;exitX=0.5;exitY=0;exitDx=0;exitDy=0;exitPerimeter=0;shape=link;fillColor=#ffcd28;gradientColor=#ffa500;strokeColor=#d79b00;strokeWidth=2;" edge="1" parent="1" source="8K-ZyTyxPVJUmLBrVijM-24" target="8K-ZyTyxPVJUmLBrVijM-19">
          <mxGeometry relative="1" as="geometry" />
        </mxCell>
        <mxCell id="8K-ZyTyxPVJUmLBrVijM-24" value="" style="shape=mxgraph.cisco.switches.mgx_8000_multiservice_switch;sketch=0;html=1;pointerEvents=1;dashed=0;fillColor=#036897;strokeColor=#ffffff;strokeWidth=2;verticalLabelPosition=bottom;verticalAlign=top;align=center;outlineConnect=0;" vertex="1" parent="1">
          <mxGeometry x="856" y="960" width="78" height="78" as="geometry" />
        </mxCell>
        <mxCell id="8K-ZyTyxPVJUmLBrVijM-25" value="" style="strokeColor=#666666;html=1;labelPosition=right;align=left;spacingLeft=15;shadow=0;dashed=0;outlineConnect=0;shape=mxgraph.rack.dell.poweredge_r7425;" vertex="1" parent="1">
          <mxGeometry x="580" y="570" width="162" height="30" as="geometry" />
        </mxCell>
        <mxCell id="8K-ZyTyxPVJUmLBrVijM-26" value="" style="strokeColor=#666666;html=1;labelPosition=right;align=left;spacingLeft=15;shadow=0;dashed=0;outlineConnect=0;shape=mxgraph.rack.dell.poweredge_r7515;" vertex="1" parent="1">
          <mxGeometry x="280" y="567.5" width="162" height="30" as="geometry" />
        </mxCell>
        <mxCell id="8K-ZyTyxPVJUmLBrVijM-27" value="" style="strokeColor=#666666;html=1;labelPosition=right;align=left;spacingLeft=15;shadow=0;dashed=0;outlineConnect=0;shape=mxgraph.rack.dell.poweredge_r940;" vertex="1" parent="1">
          <mxGeometry x="850.57" y="567.5" width="162" height="45" as="geometry" />
        </mxCell>
        <mxCell id="8K-ZyTyxPVJUmLBrVijM-28" value="" style="strokeColor=#666666;html=1;labelPosition=right;align=left;spacingLeft=15;shadow=0;dashed=0;outlineConnect=0;shape=mxgraph.rack.dell.poweredge_r940;" vertex="1" parent="1">
          <mxGeometry x="1250" y="567.5" width="162" height="45" as="geometry" />
        </mxCell>
        <mxCell id="8K-ZyTyxPVJUmLBrVijM-29" value="" style="rounded=0;whiteSpace=wrap;html=1;fillColor=#B266FF;" vertex="1" parent="1">
          <mxGeometry x="220" y="430" width="560" height="80" as="geometry" />
        </mxCell>
        <mxCell id="8K-ZyTyxPVJUmLBrVijM-30" value="" style="rounded=0;whiteSpace=wrap;html=1;fillColor=#B266FF;" vertex="1" parent="1">
          <mxGeometry x="800" y="430" width="630" height="80" as="geometry" />
        </mxCell>
        <mxCell id="8K-ZyTyxPVJUmLBrVijM-31" value="" style="image;sketch=0;aspect=fixed;html=1;points=[];align=center;fontSize=12;image=img/lib/mscae/Kubernetes.svg;" vertex="1" parent="1">
          <mxGeometry x="1130" y="436.4" width="70" height="67.2" as="geometry" />
        </mxCell>
        <mxCell id="8K-ZyTyxPVJUmLBrVijM-32" value="" style="image;sketch=0;aspect=fixed;html=1;points=[];align=center;fontSize=12;image=img/lib/mscae/Docker.svg;" vertex="1" parent="1">
          <mxGeometry x="838" y="441.29999999999995" width="70" height="57.4" as="geometry" />
        </mxCell>
        <mxCell id="8K-ZyTyxPVJUmLBrVijM-33" value="" style="image;sketch=0;aspect=fixed;html=1;points=[];align=center;fontSize=12;image=img/lib/mscae/Docker.svg;" vertex="1" parent="1">
          <mxGeometry x="927" y="441.29999999999995" width="70" height="57.4" as="geometry" />
        </mxCell>
        <mxCell id="8K-ZyTyxPVJUmLBrVijM-34" value="" style="image;sketch=0;aspect=fixed;html=1;points=[];align=center;fontSize=12;image=img/lib/mscae/Kubernetes.svg;" vertex="1" parent="1">
          <mxGeometry x="1330" y="438" width="70" height="67.2" as="geometry" />
        </mxCell>
        <mxCell id="8K-ZyTyxPVJUmLBrVijM-35" value="" style="image;sketch=0;aspect=fixed;html=1;points=[];align=center;fontSize=12;image=img/lib/mscae/Kubernetes.svg;" vertex="1" parent="1">
          <mxGeometry x="1220" y="433.6" width="70" height="67.2" as="geometry" />
        </mxCell>
        <mxCell id="8K-ZyTyxPVJUmLBrVijM-36" value="" style="image;sketch=0;aspect=fixed;html=1;points=[];align=center;fontSize=12;image=img/lib/mscae/Docker.svg;" vertex="1" parent="1">
          <mxGeometry x="1026" y="438.49999999999994" width="70" height="57.4" as="geometry" />
        </mxCell>
        <mxCell id="8K-ZyTyxPVJUmLBrVijM-37" value="" style="sketch=0;pointerEvents=1;shadow=0;dashed=0;html=1;strokeColor=none;fillColor=#005F4B;labelPosition=center;verticalLabelPosition=bottom;verticalAlign=top;align=center;outlineConnect=0;shape=mxgraph.veeam2.vm_with_a_snapshot;" vertex="1" parent="1">
          <mxGeometry x="386" y="440.8" width="82" height="58.4" as="geometry" />
        </mxCell>
        <mxCell id="8K-ZyTyxPVJUmLBrVijM-38" value="" style="rounded=0;whiteSpace=wrap;html=1;fillColor=#F19C99;" vertex="1" parent="1">
          <mxGeometry x="220" y="192.5" width="560" height="230" as="geometry" />
        </mxCell>
        <mxCell id="8K-ZyTyxPVJUmLBrVijM-39" value="" style="rounded=0;whiteSpace=wrap;html=1;fillColor=#F19C99;" vertex="1" parent="1">
          <mxGeometry x="800" y="190" width="630" height="230.5" as="geometry" />
        </mxCell>
        <mxCell id="8K-ZyTyxPVJUmLBrVijM-40" value="" style="image;sketch=0;aspect=fixed;html=1;points=[];align=center;fontSize=12;image=img/lib/mscae/Kubernetes.svg;" vertex="1" parent="1">
          <mxGeometry x="587" y="362.72" width="50" height="48" as="geometry" />
        </mxCell>
        <mxCell id="8K-ZyTyxPVJUmLBrVijM-41" value="" style="image;sketch=0;aspect=fixed;html=1;points=[];align=center;fontSize=12;image=img/lib/mscae/WebAppWordPress.svg;" vertex="1" parent="1">
          <mxGeometry x="892" y="229.25" width="79.13" height="80.75" as="geometry" />
        </mxCell>
        <mxCell id="8K-ZyTyxPVJUmLBrVijM-42" value="" style="image;sketch=0;aspect=fixed;html=1;points=[];align=center;fontSize=12;image=img/lib/mscae/WebAppUmbraco.svg;" vertex="1" parent="1">
          <mxGeometry x="1070" y="232.95" width="78.87" height="80.47" as="geometry" />
        </mxCell>
        <mxCell id="8K-ZyTyxPVJUmLBrVijM-43" value="" style="image;sketch=0;aspect=fixed;html=1;points=[];align=center;fontSize=12;image=img/lib/mscae/Event_Grid.svg;" vertex="1" parent="1">
          <mxGeometry x="1247" y="236.12" width="83.88" height="83.88" as="geometry" />
        </mxCell>
        <mxCell id="8K-ZyTyxPVJUmLBrVijM-44" value="" style="sketch=0;pointerEvents=1;shadow=0;dashed=0;html=1;strokeColor=none;fillColor=#005F4B;labelPosition=center;verticalLabelPosition=bottom;verticalAlign=top;align=center;outlineConnect=0;shape=mxgraph.veeam2.vm_with_a_snapshot;" vertex="1" parent="1">
          <mxGeometry x="260" y="445.20000000000005" width="82" height="58.4" as="geometry" />
        </mxCell>
        <mxCell id="8K-ZyTyxPVJUmLBrVijM-45" value="" style="sketch=0;pointerEvents=1;shadow=0;dashed=0;html=1;strokeColor=none;fillColor=#005F4B;labelPosition=center;verticalLabelPosition=bottom;verticalAlign=top;align=center;outlineConnect=0;shape=mxgraph.veeam2.vm_with_a_snapshot;" vertex="1" parent="1">
          <mxGeometry x="522" y="442.40000000000003" width="82" height="58.4" as="geometry" />
        </mxCell>
        <mxCell id="8K-ZyTyxPVJUmLBrVijM-46" value="" style="sketch=0;pointerEvents=1;shadow=0;dashed=0;html=1;strokeColor=none;fillColor=#005F4B;labelPosition=center;verticalLabelPosition=bottom;verticalAlign=top;align=center;outlineConnect=0;shape=mxgraph.veeam2.vm_with_a_snapshot;" vertex="1" parent="1">
          <mxGeometry x="650" y="440.8" width="82" height="58.4" as="geometry" />
        </mxCell>
        <mxCell id="8K-ZyTyxPVJUmLBrVijM-47" value="" style="orthogonalLoop=1;jettySize=auto;html=1;rounded=0;shape=link;fillColor=#b0e3e6;strokeColor=#0e8088;strokeWidth=2;" edge="1" parent="1">
          <mxGeometry width="80" relative="1" as="geometry">
            <mxPoint x="1180" y="980" as="sourcePoint" />
            <mxPoint x="1320" y="980" as="targetPoint" />
          </mxGeometry>
        </mxCell>
        <mxCell id="8K-ZyTyxPVJUmLBrVijM-48" value="" style="orthogonalLoop=1;jettySize=auto;html=1;rounded=0;shape=link;fillColor=#ffcd28;gradientColor=#ffa500;strokeColor=#d79b00;strokeWidth=2;" edge="1" parent="1">
          <mxGeometry width="80" relative="1" as="geometry">
            <mxPoint x="1180" y="1030.8" as="sourcePoint" />
            <mxPoint x="1320" y="1030.8" as="targetPoint" />
          </mxGeometry>
        </mxCell>
        <mxCell id="8K-ZyTyxPVJUmLBrVijM-49" value="25Gb" style="text;strokeColor=none;align=center;fillColor=none;html=1;verticalAlign=middle;whiteSpace=wrap;rounded=0;fontSize=17;fontStyle=1" vertex="1" parent="1">
          <mxGeometry x="1340" y="960" width="60" height="30" as="geometry" />
        </mxCell>
        <mxCell id="8K-ZyTyxPVJUmLBrVijM-50" value="100Gb" style="text;strokeColor=none;align=center;fillColor=none;html=1;verticalAlign=middle;whiteSpace=wrap;rounded=0;fontSize=17;fontStyle=1" vertex="1" parent="1">
          <mxGeometry x="1340" y="1010" width="60" height="30" as="geometry" />
        </mxCell>
        <mxCell id="8K-ZyTyxPVJUmLBrVijM-51" value="TopsDL" style="text;strokeColor=none;align=center;fillColor=none;html=1;verticalAlign=middle;whiteSpace=wrap;rounded=0;fontSize=22;fontStyle=1" vertex="1" parent="1">
          <mxGeometry x="892" y="362.72" width="82" height="30" as="geometry" />
        </mxCell>
        <mxCell id="8K-ZyTyxPVJUmLBrVijM-52" value="TopsMine" style="text;strokeColor=none;align=center;fillColor=none;html=1;verticalAlign=middle;whiteSpace=wrap;rounded=0;fontSize=22;fontStyle=1" vertex="1" parent="1">
          <mxGeometry x="1070" y="362.72" width="100" height="30" as="geometry" />
        </mxCell>
        <mxCell id="8K-ZyTyxPVJUmLBrVijM-53" value="TopsStack" style="text;strokeColor=none;align=center;fillColor=none;html=1;verticalAlign=middle;whiteSpace=wrap;rounded=0;fontSize=22;fontStyle=1" vertex="1" parent="1">
          <mxGeometry x="1208" y="362.72" width="171.5" height="30" as="geometry" />
        </mxCell>
        <mxCell id="8K-ZyTyxPVJUmLBrVijM-54" value="" style="sketch=0;html=1;aspect=fixed;strokeColor=none;shadow=0;fillColor=#3B8DF1;verticalAlign=top;labelPosition=center;verticalLabelPosition=bottom;shape=mxgraph.gcp2.monitor_2" vertex="1" parent="1">
          <mxGeometry x="430" y="252.5" width="84.71" height="72" as="geometry" />
        </mxCell>
        <mxCell id="8K-ZyTyxPVJUmLBrVijM-55" value="&lt;font color=&quot;#000000&quot;&gt;Nginx&lt;/font&gt;" style="sketch=0;html=1;verticalAlign=top;labelPosition=center;verticalLabelPosition=bottom;align=center;spacingTop=-6;fontSize=11;fontStyle=1;fontColor=#999999;shape=image;aspect=fixed;imageAspect=0;image=data:image/svg+xml,PHN2ZyB4bWxucz0iaHR0cDovL3d3dy53My5vcmcvMjAwMC9zdmciIGlkPSJzdmczMjM0NyIgdmVyc2lvbj0iMS4xIiB2aWV3Qm94PSIwIDAgMjY1LjgzODA0IDI0NS4zMDU1NCIgaGVpZ2h0PSIyNDUuMzA1NTRtbSIgd2lkdGg9IjI2NS44MzgwNG1tIj4mI3hhOyAgJiN4YTsgIDxkZWZzIGlkPSJkZWZzMzIzNDQiLz4mI3hhOyAgPGcgdHJhbnNmb3JtPSJ0cmFuc2xhdGUoMjYuMDAxOTQ1LC0yNC45MTAzOTEpIiBpZD0ibGF5ZXIxIj4mI3hhOyAgICA8cGF0aCBkPSJtIDQyLjE3OTY4NywzMy45Nzg1MTYgYyAtMC42NDE1MDMsMC4wMTg2IC0xLjI4NjQ4NywwLjAzODggLTEuOTM1MzIzLDAuMDU5OTIgMi4wMTg1ODUsOC44ODg3MiAyLjQ1ODk0MSwxNi40NTc5NjYgLTAuMDk3MzMsMjYuMDYyNzY0IDEyLjI5MTAzNywtMC4zNDA5NzUgMTkuMjU0OTQyLC0wLjQ0NTY3MyAyNi44NzQ0NDksMi45Mzc4NjYgbCAwLjAxOTUzLDAuMDA3OCAwLjAxOTUzLDAuMDA5OCBjIDYuMzEwNzgzLDIuNzc3OTA4IDE0LjMyNzI4NSwxMi42MDI0NyAyMS44NjcxODcsMjYuMTcxODc1IDcuNTM5OTAzLDEzLjU2OTM5OSAxNC43MTAwOCwyOS44NzM2NzkgMjQuMDc4MTMsNDMuNjQwNjE5IGwgMC4yOTEwMiwwLjQyNzczIDAuMzIyMjYsMC40MDIzNSBjIDkuODM1NCwxMi4yMzgxNSAyMy40ODA0MiwyMi43MDczNiA0OS4wODIzOCwyNi45Njg4MSAtMi4wODM5NiwtOS41MDI2NSAtMi4yMTQ2NywtMTYuMjA1NzYgLTAuMDQwOSwtMjYuMjk3OTIgLTE3LjE1OTg5LC0zLjAxOTUgLTIwLjk5MjI3LC03LjMxNTc2IC0yOC40MDg2NCwtMTYuNTMyMjQgQyAxMjcuMDIwNSwxMDcuMDkyODMgMTE5Ljg5NjEzLDkxLjQyODc1MiAxMTEuNjU2MjUsNzYuNTk5NjA5IDEwMy4zMjUyNyw2MS42MDY1MTYgOTMuOTU5MzUxLDQ2LjQ5OTg0MSA3Ny41NTI3MzQsMzkuMjY5NTMxIDY1LjMzNTEzMSwzMy44NDk2MzIgNTQuMzg3OTc1LDMzLjYyNDUwMyA0Mi4xNzk2ODcsMzMuOTc4NTE2IFogTSAyMzkuODM2MSwxNDcuMjkzNSBhIDI3LjU3ODE5NywyNy41NzgxOTcgMCAwIDEgLTI3LjU3ODIsMjcuNTc4MiAyNy41NzgxOTcsMjcuNTc4MTk3IDAgMCAxIC0yNy41NzgxOSwtMjcuNTc4MiAyNy41NzgxOTcsMjcuNTc4MTk3IDAgMCAxIDI3LjU3ODE5LC0yNy41NzgxOSAyNy41NzgxOTcsMjcuNTc4MTk3IDAgMCAxIDI3LjU3ODIsMjcuNTc4MTkgeiBNIDE4LjA0NjY0MSwyNDguMzU3ODggQSAyMS44NTgwNjEsMjEuODU4MDYxIDAgMCAxIC0zLjgxMTQxOTUsMjcwLjIxNTk0IDIxLjg1ODA2MSwyMS44NTgwNjEgMCAwIDEgLTI1LjY2OTQ4LDI0OC4zNTc4OCAyMS44NTgwNjEsMjEuODU4MDYxIDAgMCAxIC0zLjgxMTQxOTUsMjI2LjQ5OTgyIDIxLjg1ODA2MSwyMS44NTgwNjEgMCAwIDEgMTguMDQ2NjQxLDI0OC4zNTc4OCBaIE0gMTcuNzc4MjYzLDQ2Ljc2ODQ1MiBBIDIxLjg1ODA2MSwyMS44NTgwNjEgMCAwIDEgLTQuMDc5Nzk3Nyw2OC42MjY1MTMgMjEuODU4MDYxLDIxLjg1ODA2MSAwIDAgMSAtMjUuOTM3ODU5LDQ2Ljc2ODQ1MiAyMS44NTgwNjEsMjEuODU4MDYxIDAgMCAxIC00LjA3OTc5NzcsMjQuOTEwMzkxIDIxLjg1ODA2MSwyMS44NTgwNjEgMCAwIDEgMTcuNzc4MjYzLDQ2Ljc2ODQ1MiBaIE0gMTcuNzE0MTc2LDE0Ny42NTM3OSBBIDIxLjg1ODA2MSwyMS44NTgwNjEgMCAwIDEgLTQuMTQzODg0NywxNjkuNTExODUgMjEuODU4MDYxLDIxLjg1ODA2MSAwIDAgMSAtMjYuMDAxOTQ1LDE0Ny42NTM3OSAyMS44NTgwNjEsMjEuODU4MDYxIDAgMCAxIC00LjE0Mzg4NDcsMTI1Ljc5NTczIDIxLjg1ODA2MSwyMS44NTgwNjEgMCAwIDEgMTcuNzE0MTc2LDE0Ny42NTM3OSBaIiBzdHlsZT0iY29sb3I6IzAwMDAwMDtvcGFjaXR5OjE7ZmlsbDojMzM1YmJiO2ZpbGwtb3BhY2l0eToxOy1pbmtzY2FwZS1zdHJva2U6bm9uZSIgaWQ9InBhdGgzMjg5NyIvPiYjeGE7ICAgIDxwYXRoIGQ9Im0gMTEyLjk3NzA4LDE2NS4zNDI3IGMgLTUuMDc0Niw3LjY0NjM0IC05LjMyODY3LDE0LjY3MzE5IC0xMi41MTQxOSwyMC45MTkwMiBsIC0wLjEyNSwwLjI0NjA5IC0wLjExNTIzLDAuMjUxOTYgYyAtOS4yMTU2NzYsMjAuMTM4MDEgLTE5LjUyMjQ5MSwzNi41ODk1NiAtMjkuODI4MTI5LDQzLjMwMDc4IC0xMy4xNjMxNTYsNi44NjM1MyAtMTkuODk5MzY4LDUuNTEzMDEgLTMwLjM2NDgxNSw0Ljk2MTA2IDMuMTk2MDQ0LDExLjgwNjMzIDIuNDQ0NTA2LDE5LjExMDMxIDAuMTQyNDQ4LDI2LjA1MzIxIDkuNTc3ODUsMC41MzIzNiAyNC45Mjg4MzksMS4yNzQ0MiA0Mi45NTA4ODMsLTguMzA3MjQgbCAwLjQyNzczNCwtMC4yMjY1NiAwLjQxMDE1NiwtMC4yNTk3NyBDIDEwMi44MjIzLDI0MC4zNjc4IDExMy43ODE1MiwyMTkuNTM4OTEgMTIzLjYyNSwxOTguMDc2MTcgYyAyLjYwNjk3LC01LjExMTQ2IDYuNjc0NTEsLTExLjg1MTUgMTEuNzEsLTE5LjM5NDg0IC05LjA3NDY4LC0zLjA3Nzk1IC0xNi45NDA4MSwtOC42MDk4NiAtMjIuMzU3OTIsLTEzLjMzODYzIHogbSAtNzIuODE4NSwtNC42MTUzOSA0Ni41MTQ0NzMsMC4wMTgxIDguOTkxMTU4LC0xMy4yODE0MiAtOC40MTMyODIsLTEyLjcxODM2IC00Ny4wOTI0MDYsLTAuMDE4MyBjIDIuODEzNDc4LDcuMzYzOTggMi4yMjQ4MjIsMTkuNjM5MTEgNS43ZS01LDI2IHoiIHN0eWxlPSJjb2xvcjojMDAwMDAwO29wYWNpdHk6MTtmaWxsOiM3NjllZjU7ZmlsbC1vcGFjaXR5OjE7LWlua3NjYXBlLXN0cm9rZTpub25lIiBpZD0icGF0aDMyOTAxIi8+JiN4YTsgIDwvZz4mI3hhOzwvc3ZnPg==;direction=north;" vertex="1" parent="1">
          <mxGeometry x="639.5" y="209.85000000000002" width="60.5" height="65.15" as="geometry" />
        </mxCell>
        <mxCell id="8K-ZyTyxPVJUmLBrVijM-56" value="&lt;span style=&quot;font-size: 20px; font-weight: 400;&quot;&gt;TopsView&lt;/span&gt;" style="text;strokeColor=none;align=center;fillColor=none;html=1;verticalAlign=middle;whiteSpace=wrap;rounded=0;fontSize=22;fontStyle=1" vertex="1" parent="1">
          <mxGeometry x="230" y="310" width="122" height="100.72" as="geometry" />
        </mxCell>
        <mxCell id="8K-ZyTyxPVJUmLBrVijM-57" value="&lt;span style=&quot;font-weight: normal;&quot;&gt;&lt;font style=&quot;font-size: 20px;&quot;&gt;TopsDiscover&lt;/font&gt;&lt;/span&gt;" style="text;strokeColor=none;align=center;fillColor=none;html=1;verticalAlign=middle;whiteSpace=wrap;rounded=0;fontSize=22;fontStyle=1" vertex="1" parent="1">
          <mxGeometry x="420" y="340.72" width="120" height="40" as="geometry" />
        </mxCell>
        <mxCell id="8K-ZyTyxPVJUmLBrVijM-58" value="&lt;font color=&quot;#000000&quot;&gt;NFS Server&lt;/font&gt;" style="sketch=0;html=1;verticalAlign=top;labelPosition=center;verticalLabelPosition=bottom;align=center;spacingTop=-6;fontSize=11;fontStyle=1;fontColor=#999999;shape=image;aspect=fixed;imageAspect=0;image=data:image/svg+xml,PHN2ZyB4bWxucz0iaHR0cDovL3d3dy53My5vcmcvMjAwMC9zdmciIHhtbG5zOnY9Imh0dHBzOi8vdmVjdGEuaW8vbmFubyIgd2lkdGg9IjIwIiBoZWlnaHQ9IjE2IiB2aWV3Qm94PSIwIDAgMjAgMTYiPiYjeGE7CTxzdHlsZSB0eXBlPSJ0ZXh0L2NzcyI+JiN4YTsJLnN0MHtmaWxsOiM0Mjg1ZjQ7fSYjeGE7CS5zdDF7ZmlsbDojNjY5ZGY2O30mI3hhOwkuc3Qye2ZpbGw6I2FlY2JmYTt9JiN4YTsJPC9zdHlsZT4mI3hhOwk8cGF0aCBjbGFzcz0ic3QwIiBkPSJNMTIgMTBIOEw2IDhoOHoiLz4mI3hhOwk8cGF0aCBjbGFzcz0ic3QyIiBkPSJNMTYgMkg0bDEtMmgxMHptMyAzSDFsMS0yaDE2eiIvPiYjeGE7CTxwYXRoIGNsYXNzPSJzdDEiIGQ9Ik0xNCA3bC0yIDNIOEw2IDdIMHY5aDIwVjd6Ii8+JiN4YTs8L3N2Zz4=;" vertex="1" parent="1">
          <mxGeometry x="602" y="290.5" width="42" height="34" as="geometry" />
        </mxCell>
        <mxCell id="8K-ZyTyxPVJUmLBrVijM-59" value="" style="image;sketch=0;aspect=fixed;html=1;points=[];align=center;fontSize=12;image=img/lib/mscae/VM_Scale_Set.svg;" vertex="1" parent="1">
          <mxGeometry x="240" y="245.67999999999995" width="72" height="72" as="geometry" />
        </mxCell>
        <mxCell id="8K-ZyTyxPVJUmLBrVijM-60" value="" style="image;sketch=0;aspect=fixed;html=1;points=[];align=center;fontSize=12;image=img/lib/mscae/Event_Hub_Clusters.svg;" vertex="1" parent="1">
          <mxGeometry x="700" y="292.72" width="50" height="48" as="geometry" />
        </mxCell>
        <mxCell id="8K-ZyTyxPVJUmLBrVijM-61" value="" style="image;sketch=0;aspect=fixed;html=1;points=[];align=center;fontSize=12;image=img/lib/mscae/Kubernetes.svg;" vertex="1" parent="1">
          <mxGeometry x="650" y="361.72" width="50" height="48" as="geometry" />
        </mxCell>
        <mxCell id="8K-ZyTyxPVJUmLBrVijM-62" value="" style="image;sketch=0;aspect=fixed;html=1;points=[];align=center;fontSize=12;image=img/lib/mscae/Kubernetes.svg;" vertex="1" parent="1">
          <mxGeometry x="708" y="362.72" width="50" height="48" as="geometry" />
        </mxCell>
        <mxCell id="8K-ZyTyxPVJUmLBrVijM-63" value="&lt;font style=&quot;font-size: 16px;&quot;&gt;Harbor&lt;/font&gt;" style="text;strokeColor=none;align=center;fillColor=none;html=1;verticalAlign=middle;whiteSpace=wrap;rounded=0;fontSize=22;fontStyle=1" vertex="1" parent="1">
          <mxGeometry x="692" y="332.72" width="82" height="30" as="geometry" />
        </mxCell>
        <mxCell id="8K-ZyTyxPVJUmLBrVijM-64" value="&lt;font style=&quot;font-size: 36px;&quot;&gt;......&lt;/font&gt;" style="text;strokeColor=none;align=center;fillColor=none;html=1;verticalAlign=middle;whiteSpace=wrap;rounded=0;fontSize=17;fontStyle=1" vertex="1" parent="1">
          <mxGeometry x="1086" y="560" width="114" height="30" as="geometry" />
        </mxCell>
        <mxCell id="8K-ZyTyxPVJUmLBrVijM-65" value="&lt;font style=&quot;font-size: 36px;&quot;&gt;......&lt;/font&gt;" style="text;strokeColor=none;align=center;fillColor=none;html=1;verticalAlign=middle;whiteSpace=wrap;rounded=0;fontSize=17;fontStyle=1" vertex="1" parent="1">
          <mxGeometry x="450" y="560" width="114" height="30" as="geometry" />
        </mxCell>
        <mxCell id="8K-ZyTyxPVJUmLBrVijM-66" value="超融合CPU服务器集群" style="text;strokeColor=none;align=center;fillColor=none;html=1;verticalAlign=middle;whiteSpace=wrap;rounded=0;fontSize=17;fontStyle=1" vertex="1" parent="1">
          <mxGeometry x="210" y="520" width="220" height="30" as="geometry" />
        </mxCell>
        <mxCell id="8K-ZyTyxPVJUmLBrVijM-67" value="AI计算服务器集群" style="text;strokeColor=none;align=center;fillColor=none;html=1;verticalAlign=middle;whiteSpace=wrap;rounded=0;fontSize=17;fontStyle=1" vertex="1" parent="1">
          <mxGeometry x="810" y="520" width="142.57" height="30" as="geometry" />
        </mxCell>
        <mxCell id="8K-ZyTyxPVJUmLBrVijM-68" value="&lt;font color=&quot;#000000&quot;&gt;S3 Server&lt;/font&gt;" style="sketch=0;html=1;verticalAlign=top;labelPosition=center;verticalLabelPosition=bottom;align=center;spacingTop=-6;fontSize=11;fontStyle=1;fontColor=#999999;shape=image;aspect=fixed;imageAspect=0;image=data:image/svg+xml,PHN2ZyB4bWxucz0iaHR0cDovL3d3dy53My5vcmcvMjAwMC9zdmciIHhtbG5zOnY9Imh0dHBzOi8vdmVjdGEuaW8vbmFubyIgd2lkdGg9IjIwIiBoZWlnaHQ9IjE2IiB2aWV3Qm94PSIwIDAgMjAgMTYiPiYjeGE7CTxzdHlsZSB0eXBlPSJ0ZXh0L2NzcyI+JiN4YTsJLnN0MHtmaWxsOiM0Mjg1ZjQ7fSYjeGE7CS5zdDF7ZmlsbDojNjY5ZGY2O30mI3hhOwkuc3Qye2ZpbGw6I2FlY2JmYTt9JiN4YTsJPC9zdHlsZT4mI3hhOwk8cGF0aCBjbGFzcz0ic3QwIiBkPSJNMTIgMTBIOEw2IDhoOHoiLz4mI3hhOwk8cGF0aCBjbGFzcz0ic3QyIiBkPSJNMTYgMkg0bDEtMmgxMHptMyAzSDFsMS0yaDE2eiIvPiYjeGE7CTxwYXRoIGNsYXNzPSJzdDEiIGQ9Ik0xNCA3bC0yIDNIOEw2IDdIMHY5aDIwVjd6Ii8+JiN4YTs8L3N2Zz4=;" vertex="1" parent="1">
          <mxGeometry x="344" y="261.06" width="42" height="34" as="geometry" />
        </mxCell>
      </root>
    </mxGraphModel>
  </diagram>
</mxfile>
